
<svg width="200" height="200" viewBox="0 0 200 200" xmlns="http://www.w3.org/2000/svg">
  <!-- Yellow background sections -->
  <path d="M0 0 L50 0 L50 50 Q25 25 0 50 Z" fill="#FFD700"/>
  <path d="M150 0 L200 0 L200 50 Q175 25 150 50 Z" fill="#FFD700"/>
  <path d="M0 150 L50 150 L50 200 L0 200 Q25 175 0 150 Z" fill="#FFD700"/>
  <path d="M150 150 Q175 175 200 150 L200 200 L150 200 Z" fill="#FFD700"/>
  
  <!-- Blue circle sections -->
  <circle cx="100" cy="100" r="75" fill="#1E90FF"/>
  
  <!-- Black quarter circles -->
  <path d="M100 25 A75 75 0 0 1 175 100 L100 100 Z" fill="#2C2C2C"/>
  <path d="M25 100 A75 75 0 0 1 100 175 L100 100 Z" fill="#2C2C2C"/>
</svg>
